<svg xmlns="http://www.w3.org/2000/svg" width="45.64" height="47.203" viewBox="0 0 45.64 47.203"><defs><style>.a{fill:#004c7c;}</style></defs><g transform="translate(-111.355 -229.89)"><path class="a" d="M163.367,360.266H174.43v-19.99l-12.2,17.825a1.384,1.384,0,0,0,1.141,2.164Zm0,0" transform="translate(-44.405 -96.817)"/><path class="a" d="M155.609,265.991H134.866v-2.542h13.829a1.384,1.384,0,0,0,1.383-1.383,25.668,25.668,0,0,0-2.519-11.433,24.881,24.881,0,0,0-12.693-11.743v-7.615a1.384,1.384,0,0,0-1.894-1.284l-.013,0-8.3,3.412a1.384,1.384,0,0,0-.012,2.553l7.452,3.147v26.885H112.74a1.394,1.394,0,0,0-1.365,1.646c1.485,9.738,1.234,8.091,1.262,8.281a1.383,1.383,0,0,0,1.368,1.175h30.911a12.392,12.392,0,0,0,11.072-6.759h.021a12.253,12.253,0,0,0,.944-2.6,1.4,1.4,0,0,0-1.345-1.744Zm-20.743-22.885a12.51,12.51,0,0,1,0,15.706Zm0,0" transform="translate(0 0)"/></g></svg>