<svg xmlns="http://www.w3.org/2000/svg" width="61.644" height="29.354" viewBox="0 0 61.644 29.354"><defs><style>.a{fill:#004c7c;}</style></defs><path class="a" d="M967.36,396a6.36,6.36,0,1,0,6.36,6.36,6.361,6.361,0,0,0-6.36-6.36Zm0,9.3a2.935,2.935,0,1,1,2.935-2.935,2.935,2.935,0,0,1-2.935,2.935Zm0,0" transform="translate(-953.172 -379.366)"/><path class="a" d="M1183.36,396a6.36,6.36,0,1,0,6.36,6.36,6.361,6.361,0,0,0-6.36-6.36Zm0,9.3a2.935,2.935,0,1,1,2.935-2.935,2.935,2.935,0,0,1-2.935,2.935Zm0,0" transform="translate(-1133.947 -379.366)"/><path class="a" d="M970.9,305.38,959.478,303.3l-9.726-8.069a5.4,5.4,0,0,0-3.42-1.226H932a5.355,5.355,0,0,0-4.2,2.02L921.59,303.3H917.4a4.408,4.408,0,0,0-4.4,4.4v5.382a5.387,5.387,0,0,0,5.382,5.382H919.5a7.828,7.828,0,1,1,15.375,0h19.85a7.828,7.828,0,1,1,15.375,0h.14a4.408,4.408,0,0,0,4.4-4.4v-4.326a4.377,4.377,0,0,0-3.743-4.353Zm-36.375-3.552a1.468,1.468,0,0,1-1.468,1.468h-6.452a.734.734,0,0,1-.558-1.211l4.271-5a1.468,1.468,0,0,1,1.116-.513h1.624a1.468,1.468,0,0,1,1.468,1.468Zm7.339,6.849h-1.957a1.468,1.468,0,0,1,0-2.935h1.957a1.468,1.468,0,1,1,0,2.935Zm11.556-5.346-14.005-.032a1.468,1.468,0,0,1-1.464-1.468v-3.795a1.468,1.468,0,0,1,1.468-1.468h7.039a1.469,1.469,0,0,1,.909.315l6.51,5.137a.734.734,0,0,1-.456,1.31Zm0,0" transform="translate(-913 -294)"/></svg>