<svg xmlns="http://www.w3.org/2000/svg" width="43.561" height="43.561" viewBox="0 0 43.561 43.561"><defs><style>.a{fill:#004c7c;}</style></defs><g transform="translate(-910 -192)"><path class="a" d="M1135.256,375.354l3.965-3.965-1.8-1.8-3,3-.975-3.231,3.822-3.822-1.8-1.8-2.853,2.854-.8-2.646-8.572,8.224,9.8,15.649,4.591-4.59Zm0,0" transform="translate(-189.048 -152.243)"/><g transform="translate(910 192)"><path class="a" d="M933.873,229.278l-2.646-.8,2.854-2.853-1.8-1.8-3.822,3.822-3.231-.974,3-3-1.8-1.8-3.965,3.965-7.859-2.371L910,228.052l15.649,9.8Zm0,0" transform="translate(-910 -218.479)"/><path class="a" d="M952.679,198.988a4.059,4.059,0,1,0-5.74-5.74l-24.812,25.863-7.805-1.7-3.908,3.908,9.052,5.145,5.145,9.052,3.908-3.907-1.7-7.806Zm0,0" transform="translate(-910.367 -192)"/></g></g></svg>