<svg xmlns="http://www.w3.org/2000/svg" width="47.203" height="47.203" viewBox="0 0 47.203 47.203"><defs><style>.a{fill:#004c7c;}</style></defs><g transform="translate(-910 -192)"><path class="a" d="M925.775,378.612h15.689v5.444H957.2V377.58L910,366.852v17.2h15.775Zm0,0" transform="translate(0 -153.359)"/><rect class="a" width="15.74" height="5.738" transform="translate(941.463 233.465)"/><rect class="a" width="10.152" height="11.181" transform="translate(928.543 228.021)"/><rect class="a" width="15.775" height="5.738" transform="translate(910 233.465)"/><path class="a" d="M968.834,274.133h-8.378l-.331,3.831h9.041Zm0,0" transform="translate(-43.964 -72.037)"/><path class="a" d="M965.695,327.82h-9.519l-.281,3.244,10.282,2.337Zm0,0" transform="translate(-40.253 -119.125)"/><path class="a" d="M1092.1,227.141h-8.388l-.331,4.011h9.051Zm0,0" transform="translate(-152.067 -30.821)"/><path class="a" d="M1083.874,282.289h-9.509l-1,12.122,11.733,2.667Zm0,0" transform="translate(-143.282 -79.19)"/><path class="a" d="M1211.217,192h-8.394l-.342,4.275h9.079Zm0,0" transform="translate(-256.527 0)"/><path class="a" d="M1199.138,249.3h-9.522l-1.551,19.383,13.022,2.922Zm0,0" transform="translate(-243.885 -50.254)"/></g></svg>