<svg xmlns="http://www.w3.org/2000/svg" width="42.526" height="43.531" viewBox="0 0 42.526 43.531"><defs><style>.a{fill:#004c7c;}</style></defs><rect class="a" width="1.418" height="1.418" transform="translate(14.884 35.026)"/><path class="a" d="M960.274,278.277V252.556l-17.011-11.548-17.011,11.548v7.564a2.47,2.47,0,0,1,2.3,1.552c1.766,4.367,2.662,7.331,2.662,8.808,0,2.956-1.785,5.24-4.253,5.612v-1.437c1.617-.359,2.835-1.946,2.835-4.175,0-1.661-1.51-5.685-2.559-8.278a1.062,1.062,0,0,0-1.97,0c-1.048,2.593-2.559,6.617-2.559,8.278,0,2.229,1.218,3.815,2.835,4.175v3.622H922v1.418h42.526v-1.418Zm-9.923-9.214,1.418-2.126,1.418,2.126v2.126h2.835v-2.126l1.418-2.126,1.418,2.126v9.214h-2.835v-4.253h-2.835v4.253h-2.835v-4.253h-2.835v4.253h-2.835v-9.214l1.418-2.126,1.418,2.126v2.126h2.835Zm-6.379-14.175h3.544v1.418a2.126,2.126,0,0,1-2.126,2.126h-1.418Zm1.418-4.961a2.126,2.126,0,0,1,2.126,2.126v1.418h-3.544v-3.544Zm-6.379,2.126a2.126,2.126,0,0,1,2.126-2.126h1.418v3.544h-3.544Zm0,2.835h3.544v3.544h-1.418a2.126,2.126,0,0,1-2.126-2.126Zm1.418,9.923v13.467h-7.8V264.811Zm0,0" transform="translate(-922 -236.164)"/><path class="a" d="M947.9,203.427l19.05,12.926,1.592-2.347L947.9,200l-20.642,14.006,1.592,2.347Zm0,0" transform="translate(-926.64 -200)"/></svg>